<svg fill="none" height="211" viewBox="0 0 567 211" width="567" xmlns="http://www.w3.org/2000/svg" xmlns:xlink="http://www.w3.org/1999/xlink"><clipPath id="a"><path d="m0 0h567v211h-567z"/></clipPath><g clip-path="url(#a)"><path d="m580.9 16.7v12h-26.7v5.9h26.7v10.8h-26.6v5.9h26.7v159.7h-368.042c.028.066.042.1.042.1h-213v-78c2.9-1.8 6.3-2.9 9.9-2.9 10.3 0 18.6 8.3 18.6 18.6v1c1.3-.6 2.8-.9 4.4-.9 3.6 0 6.7 1.5 8.9 4v-37.1l25.1-23.8h7.6l-.1.1h2.5c2.2 0 4 1.8 4 4v1.1h-12.1l-21.5 20.1v42.8h33.1c2.6-17.8 17.9-31.5 36.4-31.5 6.6 0 28.7 1.6 35.7 28.4 0 0 4.5-8.3 11-9.5 5.226-.965 11.745.462 16.178 5.32 7.248-21.875 21.475-22.72 26.222-22.72 10.3 0 18.6 8.3 18.6 18.6v1c1.3-.6 2.8-.9 4.4-.9 3.6 0 6.7 1.5 8.9 4v-37.1l25.1-23.8h7.6l-.1.1h2.5c2.2 0 4 1.8 4 4v1.1h-12.1l-21.5 20.1v42.8h33.1c2.6-17.8 17.9-31.5 36.4-31.5 6.6 0 12.8 1.7 18.2 4.8h35.5v-69.3l30.2-16h35.8v-35l24.2-13h57.7v12.2h-47.2v5.9h47.2v11.4h-47.2v5.9h47.2v11.5h-47.2v5.9h47.2v14.2h16.5v-39.3l15.5-11z" fill="#c0e3ff"/><g fill="#a2cdfa"><path d="m567 183h-567v28h567z"/><circle cx="363.5" cy="183.5" r="12.5"/><circle cx="494.5" cy="183.5" r="12.5"/></g><path d="m541.909 160.346v-12.055l-17.727-35.218h-43.728v36.164h-6.381v-54.6003h-21.746l-47.036 63.3453h-9.455l-25.291-35.691 9.455-6.854 20.8 28.836 36.873-49.6363h-114.637v54.6003 8.509 2.6h-6.854v14.182h6.854v14.181h16.309c-.472-1.89-.709-3.781-.709-5.672 0-3.309.709-6.618 1.891-9.691s3.073-5.673 5.436-8.037c2.364-2.363 4.964-4.018 8.037-5.436s6.382-1.891 9.691-1.891v6.618c-10.164 0-18.437 8.273-18.437 18.437 0 2.127.237 4.018.946 5.909 2.363 7.327 9.454 12.527 17.491 12.527h.945c8.037 0 13.946-5.436 16.546-12.764h89.581c-.472-1.89-.709-3.781-.709-5.672 0-3.309.709-6.618 1.891-9.691s3.073-5.673 5.437-8.037c2.363-2.363 4.963-4.018 8.036-5.436s6.382-1.891 9.691-1.891v6.618c-10.164 0-18.436 8.273-18.436 18.437 0 2.127.236 4.018.945 5.909 2.364 7.327 9.455 12.527 17.491 12.527h.945c8.037 0 13.946-5.436 16.546-12.764h29.073v-14.181h7.09v-14.182zm-168.764 28.363c-1.891 3.073-5.436 5.2-9.454 5.2s-7.564-2.127-9.455-5.2c-1.182-1.654-1.654-3.781-1.654-5.909 0-6.145 4.963-11.109 11.109-11.109 6.145 0 11.109 4.964 11.109 11.109 0 2.128-.709 4.255-1.655 5.909zm131.418 0c-1.89 3.073-5.436 5.2-9.454 5.2s-7.564-2.127-9.455-5.2c-1.181-1.654-1.654-3.781-1.654-5.909 0-6.145 4.963-11.109 11.109-11.109 6.145 0 11.109 4.964 11.109 11.109 0 2.128-.473 4.255-1.655 5.909zm29.31-39.472h-38.291v-22.928h27.418z" fill="#1a66cc"/></g></svg>