<svg xmlns="http://www.w3.org/2000/svg" viewBox="0 0 34.86 57.89"><defs><style>.cls-1{fill:#69a82f;}</style></defs><g id="Слой_2" data-name="Слой 2"><g id="ЦОДД"><path class="cls-1" d="M7.15,56.27H.57V48.42h1.7v6.34H5.63V48.42H7.34v6.34H8.59v3.13H7.15Z"/><path class="cls-1" d="M9.48,52.34a3.9,3.9,0,1,1,3.89,4.06A3.86,3.86,0,0,1,9.48,52.34Zm6,0a2.22,2.22,0,0,0-2.1-2.46,2.5,2.5,0,0,0,0,4.93A2.23,2.23,0,0,0,15.47,52.34Z"/><path class="cls-1" d="M17.92,54.76h.54c.46-.32.68-1.54.9-4,.16-2,.19-2.3.19-2.3h5.09v6.34H25.9v3.13H24.43V56.27H19.37v1.62H17.92Zm2.43,0H22.9V49.94H21a13.28,13.28,0,0,0-.13,1.57,11,11,0,0,1-.52,3.23Z"/><path class="cls-1" d="M26.88,54.76h.54c.46-.32.67-1.54.89-4,.16-2,.19-2.3.19-2.3h5.1v6.34h1.25v3.13H33.38V56.27H28.32v1.62H26.88Zm2.42,0h2.56V49.94H30c0,.13,0,.05-.12,1.57a11.27,11.27,0,0,1-.53,3.23Z"/><path class="cls-1" d="M15.42,40.08l2,2L29.76,29.75a17.43,17.43,0,1,0-24.67,0,1.42,1.42,0,0,0,2.43-1,1.49,1.49,0,0,0-.43-1,14.6,14.6,0,1,1,20.66,0Z"/><polygon class="cls-1" points="10.39 21.2 8.1 21.2 16.29 13.16 18.58 13.16 10.39 21.2"/><polygon class="cls-1" points="14.77 21.2 12.47 21.2 20.67 13.16 22.96 13.16 14.77 21.2"/><polygon class="cls-1" points="19.38 21.2 17.09 21.2 25.28 13.16 27.57 13.16 19.38 21.2"/></g></g></svg>