<svg width="191" height="88" viewBox="0 0 191 88" fill="none" xmlns="http://www.w3.org/2000/svg">
<path fill-rule="evenodd" clip-rule="evenodd" d="M104.211 19.3864H124.855L132.331 26.9293V42.2135H117.378C116.121 46.1173 112.945 48.7639 108.644 48.7639H108.115C103.814 48.6977 100.175 45.9188 98.8517 42.0812C98.5209 41.0887 98.3224 40.03 98.3224 38.9052C98.3224 33.4797 102.689 29.1127 108.115 29.1127V25.606C106.328 25.606 104.608 25.9368 102.954 26.6646C101.366 27.3263 99.9104 28.3188 98.7194 29.5097C97.5284 30.7669 96.5359 32.1564 95.8743 33.7443C95.1465 35.3323 94.7495 41.1549 95.0141 42.1473H36.3916C35.1344 46.0511 31.9585 48.6977 27.6577 48.6977H27.1284C22.8277 48.6315 19.1886 45.8526 17.8652 42.015C17.5344 41.0225 17.3359 39.9639 17.3359 38.8391C17.3359 33.4135 21.7028 29.0466 27.1284 29.0466V25.5398C25.3419 25.5398 23.6216 25.8706 21.9675 26.5985C20.3795 27.2601 18.9239 28.2526 17.7329 29.4436C16.5419 30.7007 15.5495 32.0902 14.8878 33.6782C14.16 35.2661 13.763 41.0887 14.0277 42.0812H6.41863V26.0691L12.5058 20.1804H19.3871L34.6051 0.661621H64.8427H67.2247H83.6337L104.211 19.3864ZM27.0622 44.7278C29.1795 44.7278 31.0322 43.603 32.0908 41.9488C32.6863 41.0225 33.0171 39.9639 33.0171 38.7729C33.0171 35.4646 30.3705 32.818 27.0622 32.818C23.754 32.818 21.1074 35.4646 21.1074 38.7729C21.1074 39.9639 21.4382 41.0225 22.0337 41.9488C23.0923 43.603 24.945 44.7278 27.0622 44.7278ZM45.3239 4.43305L34.3404 19.3864V19.4526H64.8427V4.43305H45.3239ZM68.6141 4.43305V19.3864H98.5871L81.7811 4.43305H68.6141ZM108.049 44.7278C110.166 44.7278 112.019 43.603 113.077 41.9488C113.673 41.0225 114.004 39.9639 114.004 38.7729C114.004 35.4646 111.357 32.818 108.049 32.818C104.74 32.818 102.094 35.4646 102.094 38.7729C102.094 39.9639 102.425 41.0225 103.02 41.9488C104.079 43.603 105.931 44.7278 108.049 44.7278ZM185.264 49.4259V58.0936H190.358V68.4154H185.264V78.671H162.9C161.113 83.9643 156.813 87.9342 150.924 87.9342H150.196C144.307 87.9342 139.345 84.1628 137.558 78.8695C137.095 77.5462 136.831 76.0906 136.831 74.5688C136.831 67.2244 142.785 61.2034 150.13 61.2034V56.4394C147.748 56.4394 145.366 56.9026 143.116 57.8289C140.933 58.7552 139.014 60.0785 137.36 61.7327C135.706 63.3868 134.382 65.3056 133.456 67.4891C132.53 69.6725 132.067 72.0545 132.067 74.5026C132.067 75.9582 132.265 77.2154 132.596 78.6049H47.7057C45.9193 83.8981 41.6185 87.868 35.7298 87.868H35.002C29.1132 87.868 24.1508 84.0966 22.3644 78.8034C21.9012 77.48 21.6366 76.0244 21.6366 74.5026C21.6366 67.1582 27.5914 61.1372 34.9358 61.1372V56.3733C32.5538 56.3733 30.1719 56.8364 27.9223 57.7628C25.7388 58.6891 23.82 60.0124 22.1659 61.6665C20.5117 63.3206 19.1884 65.2394 18.2621 67.4229C17.3358 69.6064 16.8726 71.9883 16.8726 74.4364C16.8726 75.8921 17.0711 77.1492 17.402 78.5387H5.55835V68.2831H0.662109V58.0936H5.55835V50.0876H139.477V23.8861H173.155L185.264 49.4259ZM34.9358 82.5748C37.8471 82.5748 40.3614 81.053 41.817 78.7372C42.611 77.48 43.008 76.0244 43.0742 74.4364C43.0742 70.0034 39.4351 66.3643 34.9358 66.3643C30.5027 66.3643 26.8636 69.9372 26.8636 74.4364C26.8636 76.0244 27.2606 77.48 28.0546 78.7372C29.5102 81.053 32.0245 82.5748 34.9358 82.5748ZM150.064 82.5748C152.975 82.5748 155.489 81.053 156.945 78.7372C157.739 77.48 158.202 76.0244 158.202 74.4364C158.202 70.0034 154.563 66.3643 150.064 66.3643C145.631 66.3643 141.991 69.9372 141.991 74.4364C141.991 76.0244 142.388 77.48 143.182 78.7372C144.638 81.053 147.152 82.5748 150.064 82.5748ZM150.527 50.0876H180.831L173.089 33.5462H150.527V50.0876Z" fill="#991624"/>
</svg>
