<svg width="209" height="165" viewBox="0 0 209 165" fill="none" xmlns="http://www.w3.org/2000/svg">
<g clip-path="url(#clip0_14_53)">
<path d="M197.157 124.208C194.443 125.029 191.932 125.649 189.508 126.168L184.805 139.213C188.768 138.636 192.846 137.786 197.171 136.474C201.801 135.076 202.062 135.076 209.014 132.64V120.417C201.917 122.795 201.801 122.795 197.171 124.193L197.157 124.208ZM24.514 77.3469H73.3096V34.1474H24.514V77.3469ZM85.5594 77.3469H148.274L128.956 34.1474H85.5594V77.3469ZM22.6272 123.516C15.0364 125.952 7.8375 128.575 0 131.429V77.3469H12.2642V34.1474H0V12.18H59.2312L71.4809 0H101.147L113.412 12.18H121.031C127.65 12.18 133.658 16.0287 136.387 22.025L161.583 77.3613H196.126L172.469 140.179C167.476 140.251 162.512 139.991 157.389 139.674C156.605 139.617 155.821 139.559 155.037 139.487C152.033 139.198 149.058 138.78 146.111 138.247L144.37 137.93C126.169 134.384 108.607 126.961 90.6973 122.737C66.851 117.001 46.2993 116.107 22.6272 123.545V123.516ZM197.171 149.043C201.801 147.645 201.903 147.645 209.014 145.267V157.505C202.077 159.941 201.801 159.926 197.171 161.339C189.566 163.631 182.686 164.625 175.952 164.942C169.754 165.231 163.702 164.914 157.389 164.51C156.605 164.452 155.821 164.395 155.037 164.323C152.033 164.034 149.058 163.616 146.111 163.083L144.37 162.766C126.169 159.234 108.607 151.797 90.6973 147.573C66.851 141.836 46.2993 140.943 22.6272 148.38C15.0364 150.816 7.8375 153.44 0 156.294V144.07C7.8375 141.231 15.0364 138.535 22.6272 136.085C39.9277 130.651 55.8494 129.728 72.3808 131.847C78.375 132.611 84.4418 133.779 90.6973 135.292C110.117 139.876 129.145 148.236 149.029 151.306L150.77 151.551C152.962 151.84 155.168 152.085 157.389 152.243C158.274 152.301 159.145 152.359 160.001 152.416C172.802 153.209 182.541 153.512 197.157 149.072" fill="white"/>
</g>
<defs>
<clipPath id="clip0_14_53">
<rect width="209" height="165" fill="white"/>
</clipPath>
</defs>
</svg>
