<svg width="163" height="104" viewBox="0 0 163 104" fill="none" xmlns="http://www.w3.org/2000/svg">
<path d="M22.0664 56.0872C26.9635 55.642 37.6163 56.0872 42.7677 64.1007C47.5758 71.5799 47.8874 79.2371 47.4422 82.1309" stroke="white" stroke-width="6.67785"/>
<path d="M20.0635 79.4598C18.2194 79.4598 16.7246 80.9546 16.7246 82.7987C16.7246 84.6427 18.2194 86.1376 20.0635 86.1376V79.4598ZM112.218 82.7987V86.1376H116.348L115.483 82.0991L112.218 82.7987ZM114.221 66.7718L117.261 68.1535L114.221 66.7718ZM20.0635 86.1376H112.218V79.4598H20.0635V86.1376ZM115.483 82.0991C115.239 80.9641 115.086 78.7301 115.328 76.0432C115.567 73.3838 116.172 70.549 117.261 68.1535L111.182 65.3902C109.692 68.6664 108.961 72.2868 108.677 75.4439C108.395 78.5734 108.528 81.517 108.953 83.4983L115.483 82.0991ZM117.261 68.1535C120.145 61.8076 125.365 58.2831 129.56 56.4851L126.929 50.3472C121.776 52.5559 114.975 57.0448 111.182 65.3902L117.261 68.1535Z" fill="white"/>
<path d="M104.871 4L107.858 2.50679L106.935 0.661074H104.871V4ZM139.949 81.6207C140.773 83.2701 142.779 83.9386 144.428 83.1139C146.078 82.2893 146.746 80.2837 145.922 78.6343L139.949 81.6207ZM84.8379 7.33893H104.871V0.661074H84.8379V7.33893ZM101.885 5.49321L139.949 81.6207L145.922 78.6343L107.858 2.50679L101.885 5.49321Z" fill="white"/>
<circle cx="20.7308" cy="83.4664" r="16.6946" stroke="white" stroke-width="6.67785"/>
<circle cx="142.268" cy="79.4597" r="16.6946" stroke="white" stroke-width="6.67785"/>
</svg>
