<svg fill="none" viewbox="0 0 30 28" xmlns="http://www.w3.org/2000/svg">
        <path class="krug_probki" d="M28.6559 14.2153C28.6559 21.8284 22.2411 28 14.328 28C6.41485 28 0 21.8284 0 14.2153C0 6.60226 6.41485 0.430664 14.328 0.430664C23.6742 0.430664 28.6559 5.03066 28.6559 14.2153Z"></path>
        <path d="M7.16398 9.29328C4.70776 12.1599 1.24384 14.2161 0 14.2161C0 8.30841 3.99014 0 14.7361 0H22.5376C26.8717 0 28.4648 3.01539 29.4722 5.60002C30.6237 8.55412 29.6793 12.7392 28.6559 14.2161C28.6559 9.78534 25.3108 1.41633 19.4451 1.41633C13.3045 1.41633 10.2343 5.71 7.16398 9.29328Z" fill="black"></path>
        </svg>